<?xml version="1.0" encoding="utf-8"?>
<!-- Generator: Adobe Illustrator 27.2.0, SVG Export Plug-In . SVG Version: 6.00 Build 0)  -->
<svg version="1.1" id="Capa_1" xmlns="http://www.w3.org/2000/svg" xmlns:xlink="http://www.w3.org/1999/xlink" x="0px" y="0px"
	 viewBox="0 0 407.9 181.3" style="enable-background:new 0 0 407.9 181.3;" xml:space="preserve">
<style type="text/css">
	.st0{fill:#13FF3A;}
	.st1{fill:#FFFFFF;}
	.st2{fill:#00060C;}
	.st3{fill:#191919;}
	.st4{fill:#F6F6F6;}
	.st5{fill:#06131C;}
	.st6{fill:#EFFFFF;}
	.st7{fill:#1B1B1B;}
	.st8{fill:#1D1D1B;}
	.st9{fill:#000408;}
	.st10{fill:#2D2D2B;}
	.st11{fill:none;}
</style>
<g>
	<g>
		<path class="st2" d="M15.2,84H1.7V63.2h53V84H41.2v51H15.2V84z"/>
		<path class="st2" d="M57.4,63.2h30.7c4.9,0,9.6,0.4,13.9,1.3c4.3,0.9,8.2,3.1,11.7,6.5c3.5,3.5,5.2,8.6,5.2,15.5
			c0,4.6-0.9,8.3-2.7,11.1c-1.8,2.8-4.5,5-8.2,6.5l13.2,30.8H94.6l-8.9-24.8h-2.3V135H57.4V63.2z M86.1,93.2c4.4,0,6.7-2.1,6.7-6.3
			c0-2.1-0.6-3.6-1.7-4.5c-1.1-0.9-2.8-1.3-5.1-1.3h-2.6v12H86.1z"/>
		<path class="st2" d="M143.1,63.2h32l22.1,71.8h-26.3l-2.8-12.4h-18l-2.8,12.4h-26.3L143.1,63.2z M164.1,105l-5-22.1l-4.9,22.1
			H164.1z"/>
		<path class="st2" d="M198.7,63.2h26.1V135h-26.1V63.2z"/>
		<path class="st2" d="M232.7,63.2h26.8l14.1,31.6V63.2h25.3V135h-26.6L258,103v32h-25.3V63.2z"/>
		<path class="st0" d="M306.7,63.2h26.1V135h-26.1V63.2z"/>
		<path class="st0" d="M340.7,63.2h26.8l14.1,31.6V63.2h25.3V135h-26.6l-14.3-32v32h-25.3V63.2z"/>
	</g>
</g>
</svg>
