<?xml version="1.0" encoding="utf-8"?>
<!-- Generator: Adobe Illustrator 27.2.0, SVG Export Plug-In . SVG Version: 6.00 Build 0)  -->
<svg version="1.1" id="Capa_1" xmlns="http://www.w3.org/2000/svg" xmlns:xlink="http://www.w3.org/1999/xlink" x="0px" y="0px"
	 viewBox="0 0 407.9 181.3" style="enable-background:new 0 0 407.9 181.3;" xml:space="preserve">
<style type="text/css">
	.st0{fill:#13FF3A;}
	.st1{fill:#FFFFFF;}
	.st2{fill:#00060C;}
	.st3{fill:#191919;}
	.st4{fill:#F6F6F6;}
	.st5{fill:#06131C;}
	.st6{fill:#EFFFFF;}
	.st7{fill:#1B1B1B;}
	.st8{fill:#1D1D1B;}
	.st9{fill:#000408;}
	.st10{fill:#2D2D2B;}
	.st11{fill:none;}
</style>
<g>
	<g>
		<path class="st2" d="M78,114.1h-8.9v-13.8h35.1v13.8h-8.9v33.8H78V114.1z"/>
		<path class="st2" d="M106,100.2h20.4c3.3,0,6.3,0.3,9.2,0.9c2.9,0.6,5.5,2,7.8,4.3c2.3,2.3,3.4,5.7,3.4,10.3c0,3-0.6,5.5-1.8,7.4
			c-1.2,1.9-3,3.3-5.4,4.3l8.8,20.4h-17.6l-5.9-16.5h-1.5v16.5H106V100.2z M125.1,120.2c3,0,4.4-1.4,4.4-4.2c0-1.4-0.4-2.4-1.1-3
			c-0.8-0.6-1.9-0.9-3.4-0.9h-1.7v8H125.1z"/>
		<path class="st2" d="M162.9,100.2h21.3l14.6,47.7h-17.4l-1.8-8.2h-11.9l-1.8,8.2h-17.4L162.9,100.2z M176.9,128l-3.3-14.6
			l-3.3,14.6H176.9z"/>
		<path class="st2" d="M199.8,100.2h17.3v47.7h-17.3V100.2z"/>
		<path class="st2" d="M222.4,100.2h17.8l9.3,21v-21h16.8v47.7h-17.6l-9.5-21.2v21.2h-16.8V100.2z"/>
		<path class="st0" d="M271.5,100.2h17.3v47.7h-17.3V100.2z"/>
		<path class="st0" d="M294,100.2h17.8l9.3,21v-21h16.8v47.7h-17.6l-9.5-21.2v21.2H294V100.2z"/>
	</g>
</g>
<rect x="271.5" y="71.8" transform="matrix(-1 -1.224647e-16 1.224647e-16 -1 560.2245 166.7952)" class="st2" width="17.3" height="23.2"/>
<rect x="232" y="-12.2" transform="matrix(-0.6407 0.7678 -0.7678 -0.6407 428.0848 -114.1331)" class="st2" width="17.4" height="110.5"/>
<rect x="158.3" y="-12.2" transform="matrix(0.6407 0.7678 -0.7678 0.6407 93.0942 -112.7431)" class="st2" width="17.4" height="110.6"/>
<rect x="367.9" y="67.8" class="st2" width="17.4" height="112.6"/>
<rect x="345.2" y="67.8" class="st2" width="17.4" height="112.6"/>
<rect x="390.5" y="91" class="st2" width="17.4" height="66.2"/>
<rect x="23.8" y="67.8" transform="matrix(-1 -1.224647e-16 1.224647e-16 -1 65.0136 248.1336)" class="st2" width="17.4" height="112.6"/>
<rect x="46.5" y="67.8" transform="matrix(-1 -1.224647e-16 1.224647e-16 -1 110.3105 248.1336)" class="st2" width="17.4" height="112.6"/>
<rect x="1.2" y="91" transform="matrix(-1 -1.224647e-16 1.224647e-16 -1 19.7166 248.1336)" class="st2" width="17.4" height="66.2"/>
<rect x="118.9" y="71.8" transform="matrix(-1 -1.224647e-16 1.224647e-16 -1 255.0453 166.7952)" class="st2" width="17.3" height="23.2"/>
</svg>
